<?xml version="1.0" encoding="UTF-8" standalone="no"?>
<svg
   xmlns:dc="http://purl.org/dc/elements/1.1/"
   xmlns:cc="http://creativecommons.org/ns#"
   xmlns:rdf="http://www.w3.org/1999/02/22-rdf-syntax-ns#"
   xmlns:svg="http://www.w3.org/2000/svg"
   xmlns="http://www.w3.org/2000/svg"
   xmlns:sodipodi="http://sodipodi.sourceforge.net/DTD/sodipodi-0.dtd"
   xmlns:inkscape="http://www.inkscape.org/namespaces/inkscape"
   version="1.1"
   id="Layer_1"
   x="0px"
   y="0px"
   viewBox="0 0 453.15472 188.5159"
   xml:space="preserve"
   sodipodi:docname="EPWings.svg"
   inkscape:version="1.0.2 (e86c870879, 2021-01-15)"
   width="453.15472"
   height="188.5159"><metadata
   id="metadata19"><rdf:RDF><cc:Work
       rdf:about=""><dc:format>image/svg+xml</dc:format><dc:type
         rdf:resource="http://purl.org/dc/dcmitype/StillImage" /><dc:title /></cc:Work></rdf:RDF></metadata><defs
   id="defs17" /><sodipodi:namedview
   pagecolor="#262876"
   bordercolor="#666666"
   borderopacity="1"
   objecttolerance="10"
   gridtolerance="10"
   guidetolerance="10"
   inkscape:pageopacity="0"
   inkscape:pageshadow="2"
   inkscape:window-width="1879"
   inkscape:window-height="1377"
   id="namedview15"
   showgrid="false"
   inkscape:zoom="1.834116"
   inkscape:cx="208.19088"
   inkscape:cy="120.04352"
   inkscape:window-x="30"
   inkscape:window-y="39"
   inkscape:window-maximized="0"
   inkscape:current-layer="Layer_1"
   fit-margin-top="0"
   fit-margin-left="0"
   fit-margin-right="0"
   fit-margin-bottom="0"
   inkscape:document-rotation="0" />
<style
   type="text/css"
   id="style2">
	.st0{fill:#FFFFFF;}
</style>
<g
   id="g12"
   transform="translate(-0.15353265,-0.19368222)">
	<path
   class="st0"
   d="m 0,187.5 v -35.4 h 17.1 v 7 H 7.6 v 7 h 8.7 v 6.6 H 7.6 v 7.6 h 10.1 v 7.2 z m 46.5,-17.6 c 0,2.7 -0.3,5.1 -0.9,7.2 -0.6,2.2 -1.5,4 -2.7,5.6 -1.2,1.6 -2.7,2.7 -4.6,3.5 -1.8,0.8 -4,1.2 -6.6,1.2 h -10 V 152 h 10 c 2.5,0 4.7,0.4 6.6,1.2 1.9,0.8 3.4,2 4.6,3.6 1.2,1.6 2.1,3.4 2.7,5.6 0.6,2.3 0.9,4.8 0.9,7.5 z m -8,0 c 0,-3.6 -0.6,-6.3 -1.8,-8.1 -1.2,-1.8 -2.8,-2.7 -4.7,-2.7 h -2 v 21.4 h 2 c 1.9,0 3.5,-0.9 4.7,-2.7 1.2,-1.9 1.8,-4.5 1.8,-7.9 z m 12,17.6 v -35.4 h 17.1 v 7 h -9.5 v 7 h 8.7 v 6.6 h -8.7 v 7.6 h 10.1 v 7.2 z m 37.2,0 -8.2,-21.5 h -0.1 l 0.2,21.5 h -7.1 v -35.4 h 8.8 l 8.1,21.9 h 0.1 l -0.1,-21.9 h 6.9 v 35.4 z m 46.2,-24.3 c 0,2 -0.3,3.7 -0.9,5.1 -0.6,1.4 -1.4,2.6 -2.4,3.6 -1,0.9 -2.1,1.6 -3.4,2.1 -1.3,0.5 -2.5,0.7 -3.8,0.7 h -3.5 v 12.9 H 112 v -35.4 h 11 c 1.3,0 2.5,0.2 3.8,0.5 1.3,0.4 2.4,1 3.5,1.8 1,0.9 1.9,2 2.5,3.4 0.7,1.4 1.1,3.2 1.1,5.3 z m -7.5,0.1 c 0,-1.6 -0.4,-2.8 -1.1,-3.5 -0.8,-0.7 -1.7,-1 -2.8,-1 H 120 v 9.2 h 2.5 c 1.1,0 2,-0.4 2.8,-1.2 0.7,-0.8 1.1,-1.9 1.1,-3.5 z m 25.2,24.2 -4.7,-14.1 h -2.3 v 14.1 h -7.7 v -35.4 h 11.3 c 3.4,0 6.1,0.9 8,2.7 1.9,1.8 2.8,4.4 2.8,8 0,1.3 -0.1,2.5 -0.4,3.5 -0.3,1 -0.7,1.9 -1.2,2.6 -0.5,0.7 -1,1.3 -1.6,1.8 -0.6,0.5 -1.2,0.8 -1.7,1 l 6,15.8 z m -0.4,-24.3 c 0,-0.9 -0.1,-1.6 -0.4,-2.2 -0.2,-0.6 -0.6,-1 -1,-1.4 -0.4,-0.3 -0.8,-0.6 -1.3,-0.7 -0.5,-0.1 -1,-0.2 -1.4,-0.2 h -2.5 v 9 h 2.4 c 1.1,0 2.1,-0.4 3,-1.1 0.7,-0.7 1.2,-1.8 1.2,-3.4 z m 29.1,24.3 -1.5,-6.5 h -7.9 l -1.5,6.5 h -8 l 8.6,-35.4 h 10 l 8.6,35.4 z M 175,159.8 h -0.2 l -3,15.1 h 6 z m 16.1,27.7 v -35.4 h 8.1 v 35.4 z m 28.1,0 -4.7,-14.1 h -2.3 v 14.1 h -7.7 v -35.4 h 11.3 c 3.4,0 6.1,0.9 8,2.7 1.9,1.8 2.8,4.4 2.8,8 0,1.3 -0.1,2.5 -0.4,3.5 -0.3,1 -0.7,1.9 -1.2,2.6 -0.5,0.7 -1,1.3 -1.6,1.8 -0.6,0.5 -1.2,0.8 -1.7,1 l 6,15.8 z m -0.4,-24.3 c 0,-0.9 -0.1,-1.6 -0.4,-2.2 -0.2,-0.6 -0.6,-1 -1,-1.4 -0.4,-0.3 -0.8,-0.6 -1.3,-0.7 -0.5,-0.1 -1,-0.2 -1.4,-0.2 h -2.5 v 9 h 2.4 c 1.1,0 2.1,-0.4 3,-1.1 0.7,-0.7 1.2,-1.8 1.2,-3.4 z m 12,24.3 v -35.4 h 8.1 v 35.4 z m 13.4,0 v -35.4 h 17.1 v 7 h -9.5 v 7 h 8.7 v 6.6 h -8.7 v 7.6 h 10.1 v 7.2 z m 46.5,-27 c -0.6,-0.7 -1.3,-1.2 -2.1,-1.6 -0.8,-0.4 -1.6,-0.6 -2.5,-0.6 -0.9,0 -1.7,0.3 -2.4,0.9 -0.7,0.6 -1.1,1.5 -1.1,2.8 0,1.1 0.4,2 1.1,2.6 0.7,0.6 1.8,1.3 3.2,2 0.8,0.4 1.7,0.9 2.5,1.4 0.9,0.6 1.7,1.2 2.4,2 0.7,0.8 1.4,1.8 1.8,2.9 0.4,1.1 0.7,2.4 0.7,4 0,1.9 -0.3,3.6 -0.9,5 -0.6,1.5 -1.4,2.7 -2.4,3.6 -1,0.9 -2.2,1.7 -3.5,2.2 -1.3,0.5 -2.7,0.7 -4.2,0.7 -2.1,0 -4.1,-0.4 -5.8,-1.2 -1.7,-0.8 -3.2,-1.7 -4.2,-2.8 l 4.1,-6 c 0.8,0.8 1.7,1.4 2.7,1.9 1,0.5 2,0.7 3,0.7 1,0 1.8,-0.3 2.5,-1 0.7,-0.6 1,-1.5 1,-2.6 0,-1.2 -0.4,-2.1 -1.2,-2.8 -0.8,-0.7 -2,-1.4 -3.5,-2.2 -1,-0.5 -1.9,-1 -2.7,-1.5 -0.9,-0.6 -1.6,-1.2 -2.2,-2 -0.7,-0.8 -1.2,-1.7 -1.5,-2.8 -0.4,-1.1 -0.5,-2.3 -0.5,-3.8 0,-2 0.3,-3.7 1,-5.1 0.7,-1.4 1.5,-2.6 2.5,-3.5 1.1,-0.9 2.2,-1.6 3.5,-2 1.3,-0.4 2.6,-0.6 3.9,-0.6 1.9,0 3.7,0.3 5.2,0.9 1.5,0.6 2.8,1.5 3.9,2.6 z m 26.2,26.6 c -1.6,0.9 -3.6,1.4 -6,1.4 -2.1,0 -3.9,-0.5 -5.6,-1.4 -1.7,-0.9 -3.1,-2.2 -4.3,-3.9 -1.2,-1.7 -2.1,-3.6 -2.8,-5.9 -0.7,-2.3 -1,-4.8 -1,-7.5 0,-2.8 0.3,-5.3 1,-7.6 0.7,-2.3 1.6,-4.3 2.8,-5.9 1.2,-1.6 2.6,-2.9 4.3,-3.8 1.7,-0.9 3.6,-1.4 5.6,-1.4 2.4,0 4.3,0.4 5.9,1.3 1.6,0.9 2.9,1.9 3.8,3.2 l -4.3,5.8 c -0.6,-0.8 -1.3,-1.4 -2,-1.9 -0.8,-0.5 -1.7,-0.7 -2.8,-0.7 -1.1,0 -2,0.3 -2.8,0.9 -0.8,0.6 -1.4,1.3 -2,2.3 -0.5,1 -1,2.1 -1.2,3.5 -0.3,1.4 -0.4,2.8 -0.4,4.3 0,1.5 0.1,3 0.4,4.3 0.3,1.3 0.7,2.5 1.2,3.5 0.6,1 1.2,1.8 2,2.4 0.8,0.6 1.7,0.8 2.8,0.8 1.1,0 2,-0.3 2.8,-0.8 0.8,-0.5 1.4,-1.2 1.9,-1.9 l 4.5,5.5 c -1,1.4 -2.2,2.5 -3.8,3.5 z m 22.8,0.4 v -14.8 h -8.2 v 14.8 h -8 v -35.4 h 8 v 13.4 h 8.2 v -13.4 h 8 v 35.4 z m 38.8,-17.8 c 0,2.8 -0.3,5.4 -0.9,7.7 -0.6,2.3 -1.5,4.3 -2.7,5.9 -1.2,1.6 -2.6,2.9 -4.3,3.8 -1.7,0.9 -3.6,1.4 -5.7,1.4 -2.1,0 -4,-0.5 -5.7,-1.4 -1.7,-0.9 -3.1,-2.2 -4.3,-3.8 -1.2,-1.6 -2.1,-3.6 -2.7,-5.9 -0.6,-2.3 -0.9,-4.9 -0.9,-7.7 0,-2.8 0.3,-5.3 0.9,-7.6 0.6,-2.3 1.5,-4.2 2.7,-5.9 1.2,-1.6 2.6,-2.9 4.3,-3.8 1.7,-0.9 3.6,-1.3 5.7,-1.3 2.1,0 4,0.4 5.7,1.3 1.7,0.9 3.1,2.1 4.3,3.8 1.2,1.6 2.1,3.6 2.7,5.9 0.6,2.2 0.9,4.8 0.9,7.6 z m -8.2,0 c 0,-1.5 -0.1,-3 -0.4,-4.3 -0.2,-1.3 -0.6,-2.5 -1,-3.4 -0.5,-1 -1,-1.7 -1.7,-2.3 -0.7,-0.6 -1.4,-0.8 -2.3,-0.8 -0.9,0 -1.7,0.3 -2.4,0.8 -0.7,0.5 -1.2,1.3 -1.7,2.3 -0.5,1 -0.8,2.1 -1,3.4 -0.2,1.3 -0.3,2.7 -0.3,4.3 0,1.6 0.1,3 0.3,4.3 0.2,1.3 0.5,2.5 1,3.5 0.5,1 1,1.7 1.7,2.3 0.7,0.6 1.5,0.9 2.4,0.9 0.9,0 1.7,-0.3 2.3,-0.9 0.7,-0.6 1.2,-1.3 1.7,-2.3 0.4,-1 0.8,-2.1 1,-3.5 0.3,-1.3 0.4,-2.8 0.4,-4.3 z m 38.5,0 c 0,2.8 -0.3,5.4 -0.9,7.7 -0.6,2.3 -1.5,4.3 -2.7,5.9 -1.2,1.6 -2.6,2.9 -4.3,3.8 -1.7,0.9 -3.6,1.4 -5.7,1.4 -2.1,0 -4,-0.5 -5.7,-1.4 -1.7,-0.9 -3.1,-2.2 -4.3,-3.8 -1.2,-1.6 -2.1,-3.6 -2.7,-5.9 -0.6,-2.3 -0.9,-4.9 -0.9,-7.7 0,-2.8 0.3,-5.3 0.9,-7.6 0.6,-2.3 1.5,-4.2 2.7,-5.9 1.2,-1.6 2.6,-2.9 4.3,-3.8 1.7,-0.9 3.6,-1.3 5.7,-1.3 2.1,0 4,0.4 5.7,1.3 1.7,0.9 3.1,2.1 4.3,3.8 1.2,1.6 2.1,3.6 2.7,5.9 0.6,2.2 0.9,4.8 0.9,7.6 z m -8.2,0 c 0,-1.5 -0.1,-3 -0.4,-4.3 -0.2,-1.3 -0.6,-2.5 -1,-3.4 -0.5,-1 -1,-1.7 -1.7,-2.3 -0.7,-0.6 -1.4,-0.8 -2.3,-0.8 -0.9,0 -1.7,0.3 -2.4,0.8 -0.7,0.5 -1.2,1.3 -1.7,2.3 -0.5,1 -0.8,2.1 -1,3.4 -0.2,1.3 -0.3,2.7 -0.3,4.3 0,1.6 0.1,3 0.3,4.3 0.2,1.3 0.5,2.5 1,3.5 0.5,1 1,1.7 1.7,2.3 0.7,0.6 1.5,0.9 2.4,0.9 0.9,0 1.7,-0.3 2.3,-0.9 0.7,-0.6 1.2,-1.3 1.7,-2.3 0.4,-1 0.8,-2.1 1,-3.5 0.3,-1.3 0.4,-2.8 0.4,-4.3 z m 12,17.8 v -35.4 h 8.1 v 28 h 9.5 v 7.4 z m 36.3,-27 c -0.6,-0.7 -1.3,-1.2 -2.1,-1.6 -0.8,-0.4 -1.6,-0.6 -2.5,-0.6 -0.9,0 -1.7,0.3 -2.4,0.9 -0.7,0.6 -1.1,1.5 -1.1,2.8 0,1.1 0.4,2 1.1,2.6 0.7,0.6 1.8,1.3 3.2,2 0.8,0.4 1.7,0.9 2.5,1.4 0.9,0.6 1.7,1.2 2.4,2 0.7,0.8 1.4,1.8 1.8,2.9 0.4,1.1 0.7,2.4 0.7,4 0,1.9 -0.3,3.6 -0.9,5 -0.6,1.5 -1.4,2.7 -2.4,3.6 -1,0.9 -2.2,1.7 -3.5,2.2 -1.3,0.5 -2.7,0.7 -4.2,0.7 -2.1,0 -4.1,-0.4 -5.8,-1.2 -1.7,-0.8 -3.2,-1.7 -4.2,-2.8 l 4.1,-6 c 0.8,0.8 1.7,1.4 2.7,1.9 1,0.5 2,0.7 3,0.7 1,0 1.8,-0.3 2.5,-1 0.7,-0.6 1,-1.5 1,-2.6 0,-1.2 -0.4,-2.1 -1.2,-2.8 -0.8,-0.7 -2,-1.4 -3.5,-2.2 -1,-0.5 -1.9,-1 -2.7,-1.5 -0.9,-0.6 -1.6,-1.2 -2.2,-2 -0.7,-0.8 -1.2,-1.7 -1.5,-2.8 -0.4,-1.1 -0.5,-2.3 -0.5,-3.8 0,-2 0.3,-3.7 1,-5.1 0.7,-1.4 1.5,-2.6 2.5,-3.5 1.1,-0.9 2.2,-1.6 3.5,-2 1.3,-0.4 2.6,-0.6 3.9,-0.6 1.9,0 3.7,0.3 5.2,0.9 1.5,0.6 2.8,1.5 3.9,2.6 z"
   id="path4"
   style="fill:#ffffff;fill-opacity:1" />
	
	<g
   id="g10">
		<path
   class="st0"
   d="m 165.8,33.2 c 0.6,2.4 0.9,5 0.9,7.5 v 45 c 0,3.7 -0.7,7.3 -1.9,10.8 C 154.7,93.9 142.4,90.5 137.9,88 124,80.2 119.5,63.6 119.5,63.6 l 33.5,8.8 v -1.8 c 0,0 -23.2,-8 -35.1,-14.5 C 103.2,48.2 104.8,28.8 104.8,28.8 L 153,50.6 v -2 c 0,0 -16.9,-8.3 -31.5,-18.3 C 105,19 108.3,0 108.3,0 Z m 179.9,-4.6 -48.2,21.9 v -2 c 0,0 16.9,-8.3 31.5,-18.3 C 345.5,19 342.3,0 342.3,0 l -64.7,37.3 c 6.5,4.5 10.8,12 10.8,20.6 v 24.6 c 0,5.2 -1.4,10.1 -3.9,14.2 10.3,-2.6 23.5,-6.3 28.1,-8.8 C 326.5,80.1 331,63.5 331,63.5 l -33.5,8.8 v -1.8 c 0,0 23.2,-8 35.1,-14.5 14.7,-8 13.1,-27.4 13.1,-27.4 z M 280,57.9 v 24.6 c 0,10.9 -8.9,19.8 -19.8,19.8 h -18 v 11.4 c 0,6.1 1.5,12.2 4.2,17.7 l 0.3,0.6 h -4.6 v 0 h -19.8 v 0 h -4.6 l 0.2,-0.4 c 2.9,-5.6 4.4,-11.9 4.4,-18.2 V 98.8 l -3,5.4 h -36.8 -7.6 v 0 h -4.6 l 0.2,-0.4 c 2.9,-5.6 4.3,-11.8 4.3,-18.1 v -45 c 0,-6.3 -1.5,-12.5 -4.3,-18.2 l -0.2,-0.4 h 58.8 l -10,18 h -24.5 v 12.1 h 26.8 c -0.7,-3.6 -1.9,-7.2 -3.6,-10.5 l -0.2,-0.4 h 45.5 c 9.5,0 16.9,7.5 16.9,16.6 z m -57.6,2 c 0,-2 -0.2,-4 -0.5,-6 l -9.1,16.3 h -18 v 16.1 h 27.5 V 59.9 Z m 37.8,2.7 c 0,-1.8 -1.5,-3.3 -3.3,-3.3 h -14.6 v 25.1 h 14.6 c 1.8,0 3.3,-1.5 3.3,-3.3 z"
   id="path8"
   style="fill:#d72630;fill-opacity:1" />
	</g>
</g>
<rect
   style="fill:none;fill-opacity:1;fill-rule:evenodd;stroke:#ff0000;stroke-width:0;stroke-miterlimit:4;stroke-dasharray:none;paint-order:fill markers stroke"
   id="rect846"
   height="190.61046"
   x="5e-07"
   y="5e-07"
   width="452.27759" /><rect
   style="fill:none;fill-opacity:1;fill-rule:evenodd;stroke:#ff0000;stroke-width:0;stroke-miterlimit:4;stroke-dasharray:none;paint-order:fill markers stroke"
   id="rect913"
   width="453.15472"
   height="188.5159"
   x="5e-07"
   y="5e-07" /></svg>
